HIERARCHY
ROOT joint_0
{
	OFFSET 0.000000 0.000000 0.000000
	CHANNELS 6 Xposition Yposition Zposition Zrotation Yrotation Xrotation 
	JOINT joint_1
	{
		OFFSET 0.511002 1.944000 108.288940
		CHANNELS 3 Zrotation Yrotation Xrotation
		JOINT joint_2
		{
			OFFSET -9.074005 1.512993 98.440063
			CHANNELS 3 Zrotation Yrotation Xrotation
			JOINT joint_3
			{
				OFFSET -8.590996 1.815002 98.366943
				CHANNELS 3 Zrotation Yrotation Xrotation
				JOINT joint_4
				{
					OFFSET 2.489998 3.531998 136.462036
					CHANNELS 3 Zrotation Yrotation Xrotation
					JOINT joint_5
					{
						OFFSET 22.708000 2.955002 80.357056
						CHANNELS 3 Zrotation Yrotation Xrotation
						End Site
						{
							OFFSET 0.000000 0.000000 0.000000
						}
					}
				}
				JOINT joint_6
				{
					OFFSET 2.860001 -27.684998 77.234009
					CHANNELS 3 Zrotation Yrotation Xrotation
					JOINT joint_7
					{
						OFFSET 5.449997 -131.244003 -18.851929
						CHANNELS 3 Zrotation Yrotation Xrotation
						JOINT joint_8
						{
							OFFSET 35.757000 -24.661995 -264.074097
							CHANNELS 3 Zrotation Yrotation Xrotation
							JOINT joint_9
							{
								OFFSET 49.392001 -1.747002 -239.960938
								CHANNELS 3 Zrotation Yrotation Xrotation
								End Site
								{
									OFFSET 0.000000 0.000000 0.000000
								}
							}
						}
					}
				}
				JOINT joint_10
				{
					OFFSET -0.127998 31.625000 75.753052
					CHANNELS 3 Zrotation Yrotation Xrotation
					JOINT joint_11
					{
						OFFSET -5.618004 131.132996 -19.557007
						CHANNELS 3 Zrotation Yrotation Xrotation
						JOINT joint_12
						{
							OFFSET 46.488998 30.127991 -261.826050
							CHANNELS 3 Zrotation Yrotation Xrotation
							JOINT joint_13
							{
								OFFSET 66.021003 0.474030 -235.934937
								CHANNELS 3 Zrotation Yrotation Xrotation
								End Site
								{
									OFFSET 0.000000 0.000000 0.000000
								}
							}
						}
					}
				}
			}
		}
	}
	JOINT joint_14
	{
		OFFSET 15.887001 -78.871004 -94.561035
		CHANNELS 3 Zrotation Yrotation Xrotation
		JOINT joint_15
		{
			OFFSET -4.133003 6.714001 -473.615967
			CHANNELS 3 Zrotation Yrotation Xrotation
			JOINT joint_16
			{
				OFFSET -19.541000 5.340000 -399.613007
				CHANNELS 3 Zrotation Yrotation Xrotation
				JOINT joint_17
				{
					OFFSET 164.317001 41.657999 -73.195000
					CHANNELS 3 Zrotation Yrotation Xrotation
					End Site
					{
						OFFSET 0.000000 0.000000 0.000000
					}
				}
			}
		}
	}
	JOINT joint_18
	{
		OFFSET 6.513000 77.960991 -96.406982
		CHANNELS 3 Zrotation Yrotation Xrotation
		JOINT joint_19
		{
			OFFSET -10.660004 -8.518997 -473.485016
			CHANNELS 3 Zrotation Yrotation Xrotation
			JOINT joint_20
			{
				OFFSET -36.967995 -11.098999 -398.260010
				CHANNELS 3 Zrotation Yrotation Xrotation
				JOINT joint_21
				{
					OFFSET 166.067997 30.363998 -74.785000
					CHANNELS 3 Zrotation Yrotation Xrotation
					End Site
					{
						OFFSET 0.000000 0.000000 0.000000
					}
				}
			}
		}
	}
}
MOTION
Frames: 9
Frame Time: 0.016667
-88.066000 90.710000 1059.947020 -2.031825 1.089884 0.480544 0.925025 -0.562330 0.845486 0.817488 0.093535 -0.221715 0.849775 -0.034548 0.117583 -0.080236 -0.657265 0.365340 0.000000 0.000000 0.000000 3.835512 -0.893049 0.436458 -0.099739 -0.381217 -0.850412 -0.264090 0.835215 -1.234752 0.000000 0.000000 0.000000 -1.162563 -0.807840 -1.194319 -0.127228 -0.646191 -1.019347 0.824638 1.531467 2.933743 0.000000 0.000000 0.000000 -1.667141 -0.808745 -1.777699 -1.663014 0.632906 -0.458781 -1.701640 -1.668470 -0.333376 0.000000 0.000000 0.000000 -1.745967 -2.262419 0.765723 -1.767404 0.749087 -0.917436 -1.757445 -0.397543 -0.718689 0.000000 0.000000 0.000000 
-88.150000 90.269000 1059.957030 -2.004048 1.300763 0.484150 1.003270 -0.507676 0.711677 0.914510 0.057150 -0.165936 0.936698 -0.019940 0.069299 -0.087118 -0.666554 0.391004 0.000000 0.000000 0.000000 3.339192 -0.966197 0.708425 -0.093435 -0.542550 -0.967885 -0.271517 0.948921 -1.265639 0.000000 0.000000 0.000000 -0.643937 -0.966693 -1.212994 -0.188196 -0.890576 -1.016368 0.801309 1.729966 2.858369 0.000000 0.000000 0.000000 -1.680272 -1.032217 -1.735490 -1.672739 0.614988 -0.477937 -1.711846 -1.666999 -0.338289 0.000000 0.000000 0.000000 -1.745059 -2.502672 0.796749 -1.771161 0.751569 -0.924539 -1.761830 -0.380795 -0.723710 0.000000 0.000000 0.000000 
-88.118000 89.702000 1060.030030 -1.952031 1.616326 0.490697 1.108719 -0.409919 0.527922 1.046066 0.004698 -0.089388 1.054395 -0.003367 0.002842 -0.094432 -0.731117 0.425413 0.000000 0.000000 0.000000 2.657340 -1.046090 1.017024 -0.082091 -0.739123 -1.079878 -0.273230 1.047106 -1.270403 0.000000 0.000000 0.000000 0.059242 -1.167769 -1.205587 -0.271635 -1.210585 -1.042265 0.761703 1.943169 2.727414 0.000000 0.000000 0.000000 -1.702715 -1.350841 -1.684807 -1.690816 0.576320 -0.496750 -1.729877 -1.663679 -0.347138 0.000000 0.000000 0.000000 -1.747648 -2.847206 0.835337 -1.780543 0.742731 -0.931947 -1.771961 -0.360808 -0.731899 0.000000 0.000000 0.000000 
-87.206000 89.327000 1060.203980 -1.855593 2.035827 0.494481 1.201985 -0.231831 0.422920 1.155974 -0.043124 -0.048449 1.155596 0.035630 -0.037173 -0.090115 -1.213658 0.470946 0.000000 0.000000 0.000000 2.219539 -0.938143 0.938049 -0.085233 -0.686661 -1.001728 -0.215423 0.696630 -1.010627 0.000000 0.000000 0.000000 0.465068 -1.185533 -1.094551 -0.292257 -1.298999 -1.090898 0.665231 1.638191 2.385245 0.000000 0.000000 0.000000 -1.737309 -1.700511 -1.664642 -1.722185 0.480604 -0.470740 -1.757501 -1.646941 -0.363625 0.000000 0.000000 0.000000 -1.768616 -3.221407 0.869473 -1.807654 0.657837 -0.938536 -1.801080 -0.325980 -0.751347 0.000000 0.000000 0.000000 
-85.042000 89.352000 1060.552000 -1.700930 2.588495 0.488631 1.282395 0.106391 0.486786 1.233153 -0.078529 -0.073266 1.234163 0.099935 -0.025820 -0.063631 -2.421605 0.524404 0.000000 0.000000 0.000000 2.171589 -0.467153 0.107524 -0.131294 -0.162705 -0.550367 -0.043930 -0.646238 -0.236956 0.000000 0.000000 0.000000 0.280611 -0.867388 -0.821185 -0.178458 -0.950400 -1.149882 0.463073 0.269263 1.660245 0.000000 0.000000 0.000000 -1.782929 -2.060176 -1.701371 -1.767130 0.264590 -0.356844 -1.791529 -1.596479 -0.391458 0.000000 0.000000 0.000000 -1.819510 -3.596297 0.896465 -1.861790 0.414417 -0.939654 -1.860001 -0.268107 -0.788403 0.000000 0.000000 0.000000 
-81.998000 89.568000 1060.999020 -1.502597 3.235488 0.483338 1.355934 0.545405 0.632387 1.293707 -0.107006 -0.125331 1.300695 0.162507 0.007959 -0.019694 -4.064787 0.553319 0.000000 0.000000 0.000000 2.304731 0.203108 -1.013285 -0.222536 0.611632 0.022627 0.168748 -2.453180 0.765366 0.000000 0.000000 0.000000 -0.207869 -0.362335 -0.518665 0.009402 -0.357215 -1.150921 0.201317 -1.623468 0.742133 0.000000 0.000000 0.000000 -1.840939 -2.439070 -1.769761 -1.825158 -0.011243 -0.198935 -1.835154 -1.527047 -0.428293 0.000000 0.000000 0.000000 -1.888589 -3.988899 0.918197 -1.933057 0.091601 -0.940246 -1.937990 -0.187881 -0.838066 0.000000 0.000000 0.000000 
-78.430000 89.670000 1061.357060 -1.282226 3.880140 0.497244 1.393159 0.903609 0.721500 1.322871 -0.124133 -0.159460 1.334024 0.199419 0.030580 0.031137 -5.589001 0.522426 0.000000 0.000000 0.000000 2.570547 0.754207 -1.705505 -0.306351 1.257919 0.319116 0.308869 -3.540498 1.466798 0.000000 0.000000 0.000000 -0.624248 0.103313 -0.340382 0.158431 0.189553 -1.042497 -0.016951 -2.940797 -0.014731 0.000000 0.000000 0.000000 -1.917852 -2.827633 -1.830578 -1.899969 -0.193747 -0.081481 -1.899412 -1.488527 -0.466401 0.000000 0.000000 0.000000 -1.957279 -4.400979 0.929730 -2.006203 -0.132458 -0.951751 -2.016660 -0.090438 -0.891129 0.000000 0.000000 0.000000 
-74.263000 89.485000 1061.536990 -1.044741 4.553665 0.535034 1.365294 1.083122 0.682844 1.299969 -0.138431 -0.157831 1.310258 0.226346 0.029373 0.090937 -6.886088 0.418722 0.000000 0.000000 0.000000 3.152327 1.073820 -1.665571 -0.344225 1.655157 0.070992 0.381814 -3.355731 1.840504 0.000000 0.000000 0.000000 -0.852523 0.488855 -0.300862 0.226111 0.629492 -0.755776 -0.198880 -3.256216 -0.659977 0.000000 0.000000 0.000000 -2.019797 -3.277356 -1.859437 -1.996454 -0.242822 -0.039369 -1.991151 -1.483129 -0.508244 0.000000 0.000000 0.000000 -2.021479 -4.858747 0.948203 -2.076821 -0.274350 -0.992717 -2.094335 0.081022 -0.957221 0.000000 0.000000 0.000000 
-69.573000 89.185000 1061.628050 -0.782850 5.228196 0.592403 1.297440 1.176652 0.586494 1.243216 -0.146261 -0.140269 1.250740 0.243718 0.019393 0.155286 -8.066913 0.272112 0.000000 0.000000 0.000000 3.949818 1.269649 -1.265765 -0.348946 1.927550 -0.411678 0.407721 -2.454778 1.970587 0.000000 0.000000 0.000000 -1.028854 0.832107 -0.366924 0.254848 1.022286 -0.377773 -0.336745 -3.003276 -1.159333 0.000000 0.000000 0.000000 -2.140430 -3.741507 -1.879426 -2.109881 -0.197575 -0.037175 -2.103336 -1.507184 -0.551608 0.000000 0.000000 0.000000 -2.085632 -5.340808 0.956883 -2.149802 -0.316678 -1.044529 -2.172783 0.270120 -1.026824 0.000000 0.000000 0.000000 
